<?xml version="1.0" standalone="no"?>
<!DOCTYPE svg PUBLIC "-//W3C//DTD SVG 1.1//EN" "http://www.w3.org/Graphics/SVG/1.1/DTD/svg11.dtd" >
<svg xmlns="http://www.w3.org/2000/svg" xmlns:xlink="http://www.w3.org/1999/xlink" version="1.1">
<metadata>
Created by FontForge 20201107 at Sat Feb 24 23:45:25 2024
 By 
(c)2021 Yukita Creative
</metadata>
<defs>
<font id="ArtegaRegular" horiz-adv-x="546" >
  <font-face 
    font-family="Artega"
    font-weight="500"
    font-stretch="normal"
    units-per-em="2048"
    panose-1="0 0 0 0 0 0 0 0 0 0"
    ascent="1638"
    descent="-410"
    x-height="1382"
    cap-height="1791"
    bbox="-439 -593.483 3688 2299"
    underline-thickness="0"
    underline-position="0"
    unicode-range="U+000D-25CA"
  />
<missing-glyph horiz-adv-x="1331" 
 />
    <glyph glyph-name=".notdef" horiz-adv-x="1331" 
 />
    <glyph glyph-name=".notdef" horiz-adv-x="1331" 
 />
    <glyph glyph-name=".null" horiz-adv-x="0" 
 />
    <glyph glyph-name="nonmarkingreturn" horiz-adv-x="682" 
 />
    <glyph glyph-name="controlCR" unicode="&#xd;" horiz-adv-x="1189" 
 />
    <glyph glyph-name="space" unicode=" " horiz-adv-x="1189" 
 />
    <glyph glyph-name="exclam" unicode="!" horiz-adv-x="544" 
d="M7 1634h429l-71 -1055h-287zM63 61q-63 62 -63 149q0 89 62 147t160 58q97 0 159 -58t62 -147q0 -87 -63 -149q-62 -61 -158 -61q-97 0 -159 61z" />
    <glyph glyph-name="numbersign" unicode="#" horiz-adv-x="1671" 
d="M930 621l48 374h-339l-48 -374h339zM1191 621h300v-252h-330l-46 -369h-261l46 369h-339l-46 -369h-259l46 369h-302v252h332l49 374h-303v251h333l46 369h258l-46 -369h339l47 369h258l-46 -369h300l2 -251h-332z" />
    <glyph glyph-name="dollar" unicode="$" horiz-adv-x="1445" 
d="M930 623q41 41 41 99t-42 95q-41 36 -124 64v-318q83 18 125 60zM448 1341q43 -37 127 -63v328q-88 -21 -130 -66q-41 -44 -41 -105q0 -56 44 -94zM1205 426q-138 -135 -400 -168v-258h-230v252q-172 9 -326 60q-156 51 -249 124l127 282q89 -66 205 -109
q115 -43 243 -55v385q-160 38 -277 88q-113 48 -190 142q-76 92 -76 248q0 191 140 329q138 137 403 167v256h230v-251q282 -22 469 -141l-116 -284q-172 99 -353 120v-392q163 -38 274 -85q112 -48 188 -140t76 -246q0 -189 -138 -324z" />
    <glyph glyph-name="percent" unicode="%" horiz-adv-x="2000" 
d="M1621 255q45 66 45 190q0 125 -45 191q-44 65 -123 65q-77 0 -123 -64t-46 -192q0 -127 46 -191q47 -65 123 -65q78 0 123 66zM1291 54q-91 54 -142 156t-51 235q0 134 51 236q51 101 142 155q93 55 207 55q177 0 289 -121t112 -325q0 -203 -112 -324t-289 -121
q-116 0 -207 54zM1364 1634h274l-1103 -1616h-274zM525 1015q45 65 45 192t-45 191q-45 65 -123 65q-76 0 -123 -66q-46 -65 -46 -190q0 -126 46 -191t123 -65q78 0 123 64zM112 883q-112 121 -112 324t112 324t290 121q177 0 288 -121t111 -324t-111 -324
q-111 -122 -288 -122t-290 122z" />
    <glyph glyph-name="ampersand" unicode="&#x26;" horiz-adv-x="1648" 
d="M564 1378q-47 -41 -47 -107q0 -50 25 -91q26 -42 99 -114q119 64 164 112q46 49 46 107q0 60 -41 97t-118 37q-81 0 -128 -41zM944 376l-390 365q-109 -64 -155 -123t-46 -136q0 -90 78 -145q79 -56 210 -56q169 0 303 95zM1350 0l-194 180q-231 -180 -540 -180
q-175 0 -316 57t-220 158q-80 103 -80 228q0 150 84 264q85 115 271 218q-89 93 -127 172q-39 83 -39 170q0 117 63 207q64 91 176 140q115 50 264 50q209 0 337 -101q127 -100 127 -271q0 -124 -75 -221t-241 -187l295 -275q55 116 81 252l288 -90q-47 -217 -147 -367
l189 -176z" />
    <glyph glyph-name="parenleft" unicode="(" horiz-adv-x="735" 
d="M75 168q-75 278 -75 593q0 317 75 594q76 280 213 486h344q-143 -253 -212 -521q-67 -262 -67 -559q0 -298 67 -560q68 -266 212 -520h-344q-138 210 -213 487z" />
    <glyph glyph-name="parenright" unicode=")" horiz-adv-x="737" 
d="M0 -261q145 256 213 521q69 270 69 559q0 290 -69 560q-67 263 -213 520h344q141 -205 216 -483t75 -597q0 -316 -74 -594q-73 -274 -217 -486h-344z" />
    <glyph glyph-name="asterisk" unicode="*" horiz-adv-x="1044" 
d="M690 1842l251 -136l-113 -189l-253 150l4 -279h-217l3 281l-254 -152l-111 189l252 136l-252 139l111 189l254 -153l-3 282h217l-4 -282l253 153l113 -189z" />
    <glyph glyph-name="plus" unicode="+" horiz-adv-x="1200" 
d="M1098 392h-401v-392h-298v392h-399v282h399v392h298v-392h401v-282z" />
    <glyph glyph-name="comma" unicode="," 
d="M383 273q62 -61 62 -161q0 -49 -11 -92q-12 -45 -51 -139l-131 -332h-229l102 367q-60 24 -92 75q-33 53 -33 121q0 100 63 161q62 61 161 61q97 0 159 -61z" />
    <glyph glyph-name="hyphen" unicode="-" horiz-adv-x="755" 
d="M0 729h653v-288h-653v288z" />
    <glyph glyph-name="period" unicode="." horiz-adv-x="550" 
d="M65 65q-65 65 -65 161q0 99 65 161q64 61 159 61t159 -61q65 -62 65 -161q0 -96 -65 -161t-159 -65t-159 65z" />
    <glyph glyph-name="zero" unicode="0" horiz-adv-x="1806" 
d="M1203 479q131 152 131 430q0 279 -131 431q-130 151 -352 151q-220 0 -349 -151q-129 -152 -129 -431q0 -277 129 -429t349 -152q222 0 352 151zM1434 1617q270 -246 270 -708q0 -470 -270 -707q-202 -200 -583 -200q-380 0 -582 200q-269 237 -269 707q0 462 269 708
q202 200 582 200q381 0 583 -200z" />
    <glyph glyph-name="one" unicode="1" horiz-adv-x="944" 
d="M410 1804h314v-1816h-386v1253h-250v257q26 3 49 8q115 24 184 95q49 51 74 130q15 49 15 73z" />
    <glyph glyph-name="two" unicode="2" horiz-adv-x="1792" 
d="M217 367q92 180 431 379q294 173 382 249q133 117 133 256q0 114 -76 189q-77 75 -219 75q-195 0 -265 -119q-40 -69 -48 -220h-414q11 229 100 369q172 268 607 268q343 0 548 -158q204 -157 204 -416q0 -199 -144 -353q-95 -103 -310 -228l-171 -100
q-170 -100 -220 -136q-59 -43 -99 -97h947v-310h-1486q6 194 100 352z" />
    <glyph glyph-name="three" unicode="3" horiz-adv-x="1837" 
d="M566 584q0 -106 42 -175q78 -127 282 -127q127 0 219 70q94 71 94 201q0 173 -174 231q-99 33 -310 33v248q206 3 289 33q142 51 142 206q0 101 -72 164t-204 63q-152 0 -222 -78q-71 -79 -68 -207h-399q6 131 56 249q53 104 164 190q85 63 199 95q115 33 283 33
q311 0 502 -131t191 -350q0 -156 -114 -262q-71 -67 -150 -91q57 0 168 -82q164 -123 164 -335q0 -222 -191 -392t-565 -170q-461 0 -641 244q-95 131 -105 340h420z" />
    <glyph glyph-name="four" unicode="4" horiz-adv-x="1880" 
d="M1266 1196l395 255v-1445h-395l-4 376h-1145l9 343l823 1068h483l-832 -1100h666v503z" />
    <glyph glyph-name="five" unicode="5" horiz-adv-x="1941" 
d="M585 515q25 -111 100 -174q73 -61 216 -61q163 0 249 90q85 89 85 228q0 133 -80 227q-79 93 -249 93q-82 0 -139 -16q-103 -28 -156 -108l-459 15l222 972h1232v-294h-915l-80 -385q106 55 159 70q94 28 233 28q277 0 484 -147t207 -428q0 -243 -199 -435t-596 -192
q-319 0 -524 135q-207 136 -229 382h439z" />
    <glyph glyph-name="six" unicode="6" horiz-adv-x="1857" 
d="M627 369q96 -89 248 -89q148 0 231 86q84 87 84 225q0 155 -96 237q-94 81 -235 81q-114 0 -199 -53q-130 -79 -130 -255q0 -142 97 -232zM1150 1361q0 42 -42 93q-71 83 -215 83q-215 0 -306 -189q-50 -106 -68 -309q84 78 190 112q110 35 248 35q299 0 489 -159
q191 -159 191 -406q0 -248 -187 -435q-188 -188 -581 -188q-424 0 -625 278q-156 218 -156 561q0 201 21 327q39 224 150 374q95 127 252 205q156 78 372 78q311 0 497 -126q187 -126 209 -334h-439z" />
    <glyph glyph-name="seven" unicode="7" horiz-adv-x="1931" 
d="M1713 1510q-103 -76 -287 -272q-182 -194 -308 -405q-95 -157 -177 -401q-79 -236 -79 -388h-477q21 472 413 984q258 322 423 442h-1162l6 311h1648v-271z" />
    <glyph glyph-name="eight" unicode="8" horiz-adv-x="1921" 
d="M691 1155q81 -61 220 -61q141 0 220 61q78 60 78 156q0 105 -78 164q-77 58 -220 58q-141 0 -220 -58t-79 -164q0 -96 79 -156zM662 354q90 -72 250 -72q161 0 251 72t90 201q0 134 -92 205q-90 69 -249 69t-249 -69q-92 -70 -92 -205q0 -128 91 -201zM178 800
q91 122 263 181q-172 85 -223 184q-52 101 -52 185q0 192 195 327q196 136 550 136q353 0 549 -136q195 -135 195 -327q0 -84 -52 -185q-51 -98 -222 -172q176 -74 264 -193t88 -268q0 -223 -221 -378q-222 -156 -619 -156t-601 156t-204 378q0 148 90 268z" />
    <glyph glyph-name="nine" unicode="9" horiz-adv-x="1826" 
d="M1098 1450q-96 89 -248 89q-148 0 -231 -86q-84 -87 -84 -226q0 -153 96 -236q95 -82 235 -82q112 0 199 54q130 79 130 255q0 142 -97 232zM575 458q0 -43 42 -94q70 -82 215 -82q214 0 306 189q50 106 68 309q-84 -78 -190 -112q-110 -35 -248 -35q-298 0 -489 159
t-191 406q0 248 187 435q188 188 581 188q424 0 625 -278q156 -217 156 -561q0 -201 -21 -327q-39 -224 -150 -374q-95 -127 -252 -205q-156 -78 -372 -78q-312 0 -498 126t-208 334h439z" />
    <glyph glyph-name="colon" unicode=":" horiz-adv-x="550" 
d="M65 65q-65 65 -65 161q0 99 65 161q64 61 159 61t159 -61q65 -62 65 -161q0 -96 -65 -161t-159 -65t-159 65zM65 893q-65 65 -65 162q0 98 65 160q64 61 159 61t159 -61q65 -62 65 -160q0 -97 -65 -162t-159 -65t-159 65z" />
    <glyph glyph-name="semicolon" unicode=";" horiz-adv-x="550" 
d="M385 385q63 -61 63 -160q0 -47 -12 -93q-11 -43 -51 -138l-131 -332h-229l102 367q-58 23 -91 75q-34 54 -34 121q0 98 64 160q62 61 160 61q97 0 159 -61zM65 892q-65 65 -65 161q0 98 65 160t159 62t159 -62t65 -160q0 -96 -65 -161t-159 -65t-159 65z" />
    <glyph glyph-name="equal" unicode="=" horiz-adv-x="1200" 
d="M0 281h1098v-281h-1098v281zM0 854h1098v-282h-1098v282z" />
    <glyph glyph-name="question" unicode="?" horiz-adv-x="1341" 
d="M520 61q-63 62 -63 149q0 89 62 147t159 58q98 0 160 -58t62 -147q0 -87 -64 -149q-62 -61 -158 -61t-158 61zM557 778q54 78 158 173q77 70 112 116q36 48 36 108q0 84 -68 134t-181 50q-109 0 -193 -45q-86 -46 -142 -126l-279 164q99 149 262 229t391 80
q265 0 426 -113q160 -112 160 -313q0 -96 -31 -167q-32 -72 -76 -121q-45 -49 -117 -114q-86 -77 -124 -128q-40 -54 -40 -126h-348q0 121 54 199z" />
    <glyph glyph-name="at" unicode="@" horiz-adv-x="2310" 
d="M1304 809q80 83 80 234q0 150 -80 231q-81 83 -208 83q-130 0 -208 -84t-78 -230q0 -147 78 -233q78 -85 208 -85q127 0 208 84zM1683 1983q249 -131 387 -359t138 -516q0 -202 -59 -350q-58 -146 -165 -223q-106 -76 -249 -76q-117 0 -198 51q-80 51 -118 150
q-125 -201 -394 -201q-146 0 -270 74q-121 72 -193 207q-70 131 -70 303q0 170 70 301q72 135 191 207q121 73 272 73q228 0 355 -152v136h314v-747q0 -148 110 -148q81 0 126 97t45 293q0 235 -107 412q-108 179 -302 279t-449 100q-256 0 -449 -107q-194 -108 -302 -296
q-108 -189 -108 -430q0 -244 107 -435q106 -189 298 -297q190 -107 445 -107q251 0 454 101l74 -212q-107 -54 -246 -82q-145 -29 -282 -29q-330 0 -580 137q-253 138 -390 380q-138 243 -138 544q0 299 140 540t393 377t584 136q318 0 566 -131z" />
    <glyph glyph-name="A" unicode="A" horiz-adv-x="2269" 
d="M615 677h816l-405 1062zM1648 0l-118 368h-1017l-122 -368h-391l639 1791h782l633 -1791h-406z" />
    <glyph glyph-name="B" unicode="B" horiz-adv-x="1898" 
d="M1188 343q118 59 118 223q0 140 -114 192q-65 30 -179 31h-656v-478h650q115 0 181 32zM357 1480v-395h650q118 0 190 44q72 45 72 158q0 125 -96 165q-81 28 -212 28h-604zM1407 961q136 -49 207 -158q70 -107 70 -262q0 -159 -80 -286q-51 -85 -127 -141
q-86 -66 -202 -90q-117 -24 -253 -24h-1022v1791h1080q327 -5 464 -191q83 -115 83 -273q0 -164 -83 -264q-46 -55 -137 -102z" />
    <glyph glyph-name="C" unicode="C" horiz-adv-x="2105" 
d="M959 -11q-499 0 -748 285q-211 212 -211 615q0 404 211 616q249 284 748 284q487 0 747 -284q134 -136 184 -350h-385q-37 74 -100 134q-158 147 -446 147q-289 0 -446 -147t-157 -399t156 -401q158 -150 447 -150t446 150q63 60 100 134h385q-50 -215 -184 -349
q-260 -285 -747 -285z" />
    <glyph glyph-name="D" unicode="D" horiz-adv-x="1886" 
d="M363 311h561q265 0 370 261q57 144 57 342q0 272 -86 420q-85 146 -341 146h-561v-1169zM1588 334q-195 -334 -601 -334h-987v1791h987q166 -3 277 -39q187 -61 305 -227q94 -135 128 -289t34 -297q0 -359 -143 -605z" />
    <glyph glyph-name="E" unicode="E" horiz-adv-x="1787" 
d="M1572 322v-322h-1572v1791h1528v-317h-1162v-380h1084v-311h-1084v-461h1206z" />
    <glyph glyph-name="F" unicode="F" horiz-adv-x="1705" 
d="M372 751v-751h-372v1789h1492v-315h-1120v-412h1008v-311h-1008z" />
    <glyph glyph-name="G" unicode="G" horiz-adv-x="2109" 
d="M882 611v322h1013v-953h-374v316q-208 -301 -562 -307q-491 -9 -748 285q-211 212 -211 615q0 404 211 616q249 284 748 284q487 0 747 -284q134 -136 184 -350h-385q-37 74 -100 134q-158 147 -446 147q-289 0 -446 -147t-157 -399t156 -401q158 -150 447 -150t446 150
q56 53 93 122h-616z" />
    <glyph glyph-name="H" unicode="H" horiz-adv-x="1869" 
d="M1655 0h-372v800h-911v-800h-372v1791h372v-683h911v683h372v-1791z" />
    <glyph glyph-name="I" unicode="I" horiz-adv-x="587" 
d="M0 0v1791h372v-1791h-372z" />
    <glyph glyph-name="J" unicode="J" horiz-adv-x="1781" 
d="M1566 699q0 -146 -57 -278.5t-153 -228.5t-228.5 -152.5t-278.5 -56.5h-132q-146 0 -278.5 56.5t-228.5 152.5t-153 228.5t-57 278.5v81h371v-82q0 -154 108.5 -268.5t259.5 -114.5h88q151 0 259.5 114.5t108.5 268.5v1068q0 14 -4 25h366q9 0 9 -9v-1083z" />
    <glyph glyph-name="K" unicode="K" horiz-adv-x="2011" 
d="M1002 1066l794 -1066h-481l-644 838l-303 -273v-565h-368v1791h368v-738l835 738h554z" />
    <glyph glyph-name="L" unicode="L" horiz-adv-x="1697" 
d="M1483 322v-322h-1483v1791h374v-1469h1109z" />
    <glyph glyph-name="M" unicode="M" horiz-adv-x="2480" 
d="M1919 1503l-411 -1503h-703l-459 1503q0 -19 2 -145q1 -63 1 -147v-1211h-349v1791h633l524 -1773l474 1773h634v-1791h-348v1211q0 84 1 147t1 145z" />
    <glyph glyph-name="N" unicode="N" horiz-adv-x="2025" 
d="M1461 542v1249h349v-1791h-374l-1087 1271v-1271h-349v1791h392z" />
    <glyph glyph-name="O" unicode="O" horiz-adv-x="2131" 
d="M1405 489q157 150 157 401q0 252 -157 399q-158 147 -446 147q-289 0 -446 -147t-157 -399t156 -401q158 -150 447 -150t446 150zM1706 274q-260 -285 -747 -285q-499 0 -748 285q-211 212 -211 615q0 404 211 616q249 284 748 284q487 0 747 -284q212 -214 212 -616
q0 -401 -212 -615z" />
    <glyph glyph-name="P" unicode="P" horiz-adv-x="1781" 
d="M372 1480v-527h552q129 0 199 64q71 65 71 204t-71 199q-70 60 -199 60h-552zM372 644v-644h-372v1791h984q266 0 424 -138t158 -429q0 -319 -157 -449q-158 -131 -450 -131h-587z" />
    <glyph glyph-name="Q" unicode="Q" horiz-adv-x="2111" 
d="M948 335q34 0 51 1l-131 240l326 179l164 -299q22 18 31 27q155 149 155 396q0 249 -155 395q-154 145 -441 145q-286 0 -441 -145q-156 -146 -156 -395q0 -246 156 -396q154 -148 441 -148zM1347 -299l-167 306q-108 -18 -232 -18q-493 0 -739 282q-209 211 -209 608
t209 608q246 281 739 281q482 0 739 -281q209 -211 209 -608t-209 -608q-67 -74 -156 -132l142 -259z" />
    <glyph glyph-name="R" unicode="R" horiz-adv-x="1781" 
d="M372 1480v-527h552q129 0 199 64q71 65 71 204t-71 199q-70 60 -199 60h-552zM372 644v-644h-372v1791h984q266 0 424 -138t158 -429q0 -352 -157 -449q-48 -30 -135 -48t-90 -20q64 -18 118.5 -67t90 -112.5t63.5 -136.5t42.5 -142t24 -125.5t12.5 -91.5l3 -34h-431
l-78 465q-6 32 -14 51q-26 59 -79.5 94.5t-118.5 35.5h-445z" />
    <glyph glyph-name="S" unicode="S" horiz-adv-x="1806" 
d="M1071 288q160 55 160 208q0 89 -78 137q-50 31 -302 84l-248 42q-283 62 -393 138q-181 124 -181 387q0 241 177 400q86 77 241 118t333 41q150 0 297.5 -39t245.5 -111q201 -149 212 -435h-360q-11 162 -144 229q-42 21 -123 33t-154 12q-81 0 -164.5 -15.5
t-125.5 -42.5q-89 -59 -89 -163q0 -94 88 -143q11 -6 32 -13t53 -14.5t61 -14t73 -16t72 -16.5l368 -75q204 -47 310 -130q160 -126 160 -365q0 -246 -190 -408q-92 -79 -250.5 -120.5t-338.5 -41.5q-184 0 -348 41t-262 119q-203 161 -203 439h357q18 -126 68 -184
q44 -53 148.5 -81.5t224.5 -28.5q188 0 273 29z" />
    <glyph glyph-name="T" unicode="T" horiz-adv-x="2023" 
d="M1809 1791v-317h-715v-1474h-377v1474h-717v317h1809z" />
    <glyph glyph-name="U" unicode="U" horiz-adv-x="1781" 
d="M947 -17h-328q-168 0 -310.5 82.5t-225.5 225t-83 310.5v1181q0 9 9 9h366q-4 -11 -4 -25v-1137q0 -126 88.5 -222t210.5 -96h226q122 0 210.5 96t88.5 222v1137q0 14 -4 25h366q9 0 9 -9v-1181q0 -168 -83 -310.5t-225.5 -225t-310.5 -82.5z" />
    <glyph glyph-name="V" unicode="V" horiz-adv-x="2269" 
d="M1028 53l635 1740h391l-639 -1792h-781l-634 1792h406z" />
    <glyph glyph-name="W" unicode="W" horiz-adv-x="3903" 
d="M2662 53l634 1740h392l-640 -1792h-781l-424 1200l-428 -1200h-781l-634 1792h406l622 -1740l620 1699l-14 41h29h376h15l-7 -21z" />
    <glyph glyph-name="X" unicode="X" horiz-adv-x="2056" 
d="M1829 1777l-691 -887l703 -890h-436l-484 612l-478 -612h-431l692 887l-704 890h437l484 -612l477 612h431z" />
    <glyph glyph-name="Y" unicode="Y" horiz-adv-x="2086" 
d="M945 1165l450 612h478l-747 -1042v-735h-377v750l-749 1027h496z" />
    <glyph glyph-name="Z" unicode="Z" horiz-adv-x="1955" 
d="M542 316h1199v-316h-1741v316l1184 1158h-1161v317h1715v-300z" />
    <glyph glyph-name="bracketleft" unicode="[" horiz-adv-x="727" 
d="M0 1841h625v-282h-265v-1597h265v-281h-625v2160z" />
    <glyph glyph-name="bracketright" unicode="]" horiz-adv-x="724" 
d="M0 -348v281h263v1597h-263v281h623v-2159h-623z" />
    <glyph glyph-name="asciicircum" unicode="^" horiz-adv-x="1224" 
d="M845 0l-284 681l-284 -681h-277l418 965h288l415 -965h-276z" />
    <glyph glyph-name="glyph61" unicode="_" horiz-adv-x="1255" 
d="M0 208h1154v-208h-1154v208z" />
    <glyph glyph-name="grave" unicode="`" horiz-adv-x="800" 
d="M0 1570h388l311 -332h-281z" />
    <glyph glyph-name="a" unicode="a" horiz-adv-x="1617" 
d="M478 428q-19 -77 55 -129q78 -56 196 -46q152 13 256 131q28 31 51 70q0 40 0.5 117t0.5 114q-28 -5 -84.5 -13.5t-98 -16t-97 -20t-96.5 -29.5t-80.5 -41t-65.5 -59t-37 -78zM199 1284q12 4 32.5 9.5t85 20t129.5 26t156.5 20t175 8.5t176.5 -13t169 -41t144.5 -80
t111.5 -125q49 -82 49 -234v-889h-392l66 389q-5 -9 -15 -29q-86 -171 -288 -274q-191 -98 -394 -95q-202 3 -307 107q-108 107 -69 293q16 78 62 144.5t108.5 114.5t145.5 87t166.5 63.5t180 43t177 28t165.5 14.5q-11 86 -63.5 139t-126.5 69.5t-161.5 16t-173 -18
t-155.5 -35.5t-113 -33l-43 -16z" />
    <glyph glyph-name="b" unicode="b" horiz-adv-x="1744" 
d="M1056 370q101 110 101 311q0 200 -101 310q-100 109 -289 109q-188 0 -290 -109q-101 -108 -101 -310q0 -203 101 -311q102 -110 290 -110t289 110zM901 1361q318 0 474 -202t156 -478q0 -281 -156 -480q-156 -200 -474 -200t-474 200q-91 117 -128 257l-5 4l77 -450
h-371v1776h371v-713q29 49 56 84q156 202 474 202z" />
    <glyph glyph-name="c" unicode="c" horiz-adv-x="1724" 
d="M1183 531h354q-35 -193 -151 -309q-202 -222 -581 -222q-389 0 -582 222q-164 164 -164 479t164 479q194 221 582 221q378 0 581 -221q116 -117 150 -306h-341q-28 74 -82 125q-107 104 -308 104q-200 0 -308 -104q-109 -105 -109 -282t108 -284q107 -106 309 -106
q201 0 308 106q46 46 70 98z" />
    <glyph glyph-name="d" unicode="d" horiz-adv-x="1744" 
d="M1053 370q102 110 102 311t-102 310t-289 109q-189 0 -289 -109q-101 -110 -101 -310q0 -201 101 -311t289 -110q187 0 289 110zM1160 1075v713h371v-1776h-371l76 450q-2 -1 -5 -4q-37 -140 -128 -257q-156 -200 -473 -200q-318 0 -474 200q-156 199 -156 480
q0 275 156 478q156 202 474 202q317 0 473 -202q31 -41 57 -84z" />
    <glyph glyph-name="e" unicode="e" horiz-adv-x="1712" 
d="M398 816h813q-23 111 -98 183q-107 104 -308 104q-200 0 -308 -104q-77 -73 -99 -183zM1220 684h-386l-445 1q9 -157 107 -252q107 -106 309 -106q201 0 308 106q12 12 18 19h387q-41 -139 -132 -230q-202 -222 -581 -222q-389 0 -582 222q-164 164 -164 479t164 479
q194 221 582 221q378 0 581 -221q165 -165 165 -479v-12v-1v-5z" />
    <glyph glyph-name="f" unicode="f" horiz-adv-x="1019" 
d="M511 1791q96 0 171 -26q60 -21 123 -72v-178q-65 65 -183 65q-134 0 -179 -97q-13 -29 -20 -112h254v-99h-259v-16v-1256h-342v1256v16h-76v99h81q10 134 50 216q97 204 380 204z" />
    <glyph glyph-name="g" unicode="g" horiz-adv-x="1722" 
d="M1053 370q72 78 93 203v14v202q-21 124 -93 202q-102 109 -289 109q-189 0 -289 -109q-101 -110 -101 -310q0 -201 101 -311t289 -110q187 0 289 110zM1246 846l-100 537h362v-1370q0 -152 -70.5 -285.5t-207 -222t-311.5 -96.5q-130 -6 -245 2.5t-194.5 27t-145 42
t-105.5 48.5t-67.5 46t-38.5 35l-11 13l-23 258q7 -5 20.5 -14.5t58 -34.5t92 -46.5t121 -44t147 -33.5t167 -8.5t184.5 23.5q60 14 107 43.5t74.5 64.5t46.5 75t26.5 76.5t11 66.5t2.5 48l-1 18v147q-20 -32 -43 -61q-156 -200 -473 -200q-318 0 -474 200
q-156 199 -156 480q0 275 156 478q156 202 474 202q317 0 473 -202q106 -138 141 -311z" />
    <glyph glyph-name="h" unicode="h" horiz-adv-x="1660" 
d="M1347 1192q68 -72 83 -152q16 -83 16 -256v-779h-392v807q0 24 -10 55t-34.5 68.5t-59.5 68.5t-92.5 52t-126.5 21q-170 1 -260 -92q-89 -92 -89 -262v-718h-15h-255h-112v1801h379v-453l-114 -511l80 217q32 86 93 152t142 100q3 2 9.5 4t10.5 4q127 46 261 46
q151 0 280 -43q123 -41 206 -130z" />
    <glyph glyph-name="i" unicode="i" horiz-adv-x="645" 
d="M88 1680h338v-155h-338v155zM88 0v1384h338v-1384h-338z" />
    <glyph glyph-name="j" unicode="j" horiz-adv-x="671" 
d="M120 1397h362v-1346q0 -228 -150.5 -367.5t-419.5 -152.5q-185 -8 -351 12v197q146 -11 291 22q60 14 107 43.5t74.5 64.5t47 75t27 76.5t11 66.5t2.5 48l-1 18v1080v163zM470 1700v-155h-339v155h339z" />
    <glyph glyph-name="k" unicode="k" horiz-adv-x="1429" 
d="M800 1374h415l-509 -523l509 -846h-406l-343 597l-138 -144v-453h-328v1771h328v-890z" />
    <glyph glyph-name="l" unicode="l" horiz-adv-x="548" 
d="M0 0v1782h334v-1782h-334z" />
    <glyph glyph-name="m" unicode="m" horiz-adv-x="2650" 
d="M2339 1210q67 -75 82 -153q14 -73 14 -256v-796h-381v825q0 24 -9.5 55t-33 68.5t-58 68.5t-90.5 52t-123 21q-164 1 -253 -92q-57 -60 -77 -160v-42v-796h-10h-263h-109v825q0 24 -9.5 55t-33 68.5t-58 68.5t-90.5 52t-123 21q-164 1 -253 -92q-86 -90 -86 -262v-736h-8
h-255h-112v1378h362l-93 -502l70 195q30 86 89.5 152.5t138.5 100.5q4 2 10 4t10 4q123 46 254 46q148 0 272 -43q122 -42 201 -130q44 -49 65 -99q70 155 214 218q4 2 10.5 4t9.5 4q123 46 254 46q147 0 271 -43q122 -42 201 -130z" />
    <glyph glyph-name="n" unicode="n" horiz-adv-x="1624" 
d="M1314 1210q66 -73 81 -153q15 -78 15 -256v-796h-382v825q0 24 -9.5 55t-33 68.5t-58 68.5t-90.5 52t-123 21q-164 1 -253 -92q-86 -90 -86 -262v-736h-8h-255h-112v1378h362l-93 -502l70 195q30 86 89.5 152.5t138.5 100.5q4 2 10 4t10 4q123 46 254 46q148 0 272 -43
q122 -42 201 -130z" />
    <glyph glyph-name="o" unicode="o" horiz-adv-x="1681" 
d="M1084 433q108 107 108 284t-108 282q-107 104 -309 104q-200 0 -308 -104t-108 -282q0 -177 108 -284q107 -106 308 -106q202 0 309 106zM1357 1180q165 -165 165 -479t-165 -479q-203 -222 -582 -222q-387 0 -581 222q-165 165 -165 479t165 479q194 221 581 221
q379 0 582 -221z" />
    <glyph glyph-name="p" unicode="p" horiz-adv-x="1777" 
d="M1144 339q100 109 100 310q0 202 -100 311q-101 110 -289 110t-290 -110t-102 -311q0 -200 102 -310q102 -109 290 -109q189 0 289 109zM989 1329q317 0 473 -200q156 -199 156 -480q0 -275 -156 -478q-156 -202 -473 -202q-318 0 -474 202q-27 35 -56 84v-713h-371v1794
h371l-77 -468q2 1 5 4q37 140 128 257q156 200 474 200z" />
    <glyph glyph-name="q" unicode="q" horiz-adv-x="1744" 
d="M1053 369q102 110 102 310q0 201 -102 311t-289 110q-188 0 -289 -110t-101 -311q0 -200 101 -310q100 -109 289 -109q187 0 289 109zM1236 898l-76 486h371v-1812h-371v713q-26 -43 -57 -84q-156 -202 -473 -202q-318 0 -474 202q-156 203 -156 478q0 281 156 480
q156 200 474 200q317 0 473 -200q92 -117 128 -256z" />
    <glyph glyph-name="r" unicode="r" horiz-adv-x="1013" 
d="M587 1337q123 46 254 46q55 0 106 -6v-374q-87 91 -233 92q-164 1 -253 -92q-86 -90 -86 -262v-736h-8h-255h-112v1378h362l-93 -502l70 195q30 86 89.5 152.5t138.5 100.5q4 2 10 4t10 4z" />
    <glyph glyph-name="s" unicode="s" horiz-adv-x="1449" 
d="M363 1000q0 -44 46.5 -77t122 -56.5t168 -46.5t189 -53.5t180 -70t145 -104.5t80.5 -149q38 -171 -125 -294q-148 -111 -400 -143q-263 -32 -486 40q-238 77 -319 248q-25 52 -33 111h345q32 -52 107 -89t161 -49t167 -6.5t134.5 39.5t53.5 88q0 44 -29.5 76t-79.5 52
t-115 35.5t-138.5 30t-148 31t-144 43t-126 62t-95.5 92t-51 128.5q-30 184 133 306q145 109 383 131q245 22 448 -60q216 -87 288 -259q21 -53 28 -112h-346q-12 93 -147 144.5t-265.5 27.5t-130.5 -116z" />
    <glyph glyph-name="t" unicode="t" horiz-adv-x="909" 
d="M510 382q45 -98 178 -98q117 0 183 66v-242q-63 -51 -123 -72q-72 -25 -171 -25q-283 0 -380 203q-55 111 -55 331v677h-171v119h171v265h342v-265h205v-119h-205v-677q0 -106 26 -163z" />
    <glyph glyph-name="u" unicode="u" horiz-adv-x="1624" 
d="M1043 1383h255h112v-1378h-362l93 502l-70 -195q-30 -86 -89.5 -152.5t-138.5 -100.5q-3 -2 -9.5 -4t-10.5 -4q-123 -46 -254 -46q-148 0 -272 43q-122 42 -201 130q-66 73 -81 153q-15 78 -15 256v796h382v-825q0 -24 9.5 -55t33 -68.5t58 -68.5t90.5 -52t123 -21
q164 -1 253 92q86 90 86 262v736h8z" />
    <glyph glyph-name="v" unicode="v" horiz-adv-x="1433" 
d="M663 52l307 1330h361l-314 -1382h-707l-310 1382h366z" />
    <glyph glyph-name="w" unicode="w" horiz-adv-x="2400" 
d="M1936 1382h361l-315 -1382h-706l-129 574l-130 -574h-707l-310 1382h366l297 -1330l305 1322l-2 8h4h361h1l297 -1330z" />
    <glyph glyph-name="x" unicode="x" horiz-adv-x="1650" 
d="M1417 1390l-477 -680l496 -713h-473l-250 419l-252 -419h-461l495 706l-474 687h465l243 -404l237 404h451z" />
    <glyph glyph-name="y" unicode="y" horiz-adv-x="1634" 
d="M1298 1383h112q0 -315 6 -1285q1 -129 -49 -246t-134 -202t-201 -135.5t-246 -50.5h-430v322h472q91 0 155.5 64t64.5 155l93 502l-70 -195q-30 -86 -89.5 -152.5t-138.5 -100.5q-3 -2 -9.5 -4t-10.5 -4q-123 -46 -254 -46q-148 0 -272 43q-122 42 -201 130
q-66 73 -81 153q-15 78 -15 256v796h382v-825q0 -24 9.5 -55t33 -68.5t58 -68.5t90.5 -52t123 -21q164 -1 253 92q86 90 86 262v736h8h255z" />
    <glyph glyph-name="z" unicode="z" horiz-adv-x="1558" 
d="M1322 1083l-805 -782h827v-296h-1344v281l829 804h-785v293h1278v-300z" />
    <glyph glyph-name="braceleft" unicode="{" horiz-adv-x="849" 
d="M501 844q-38 -58 -118 -83q80 -25 118 -83q37 -56 37 -176v-369q0 -83 42 -127t126 -44h42v-281h-134q-216 0 -326 106t-110 307v417q0 54 -27 81q-28 28 -75 28h-76v281h76q47 0 75 28q27 27 27 81v418q0 200 110 306q112 107 326 107h134v-282h-42q-84 0 -126 -44
q-42 -43 -42 -127v-369q0 -119 -37 -175z" />
    <glyph glyph-name="glyph90" unicode="|" horiz-adv-x="432" 
d="M0 2160h330v-2160h-330v2160z" />
    <glyph glyph-name="braceright" unicode="}" horiz-adv-x="849" 
d="M748 901v-281h-77q-47 0 -75 -28q-26 -26 -26 -80v-418q0 -200 -111 -307q-110 -106 -325 -106h-134v281h42q83 0 125 44q43 45 43 127v369q0 120 37 176q38 58 118 83q-80 25 -118 83q-37 56 -37 175v369q0 82 -43 127q-42 44 -125 44h-42v282h134q213 0 325 -107
q111 -106 111 -306v-418q0 -55 26 -81q28 -28 75 -28h77z" />
    <glyph glyph-name="nonbreakingspace" unicode="&#xa0;" horiz-adv-x="1189" 
 />
    <glyph glyph-name="exclamdown" unicode="&#xa1;" horiz-adv-x="544" 
d="M436 -486h-429l71 1036h287zM380 1068q63 -62 63 -149q0 -90 -62 -148q-64 -59 -159 -59q-96 0 -160 59q-62 58 -62 148q0 87 63 149q62 61 159 61q96 0 158 -61z" />
    <glyph glyph-name="cent" unicode="&#xa2;" horiz-adv-x="1351" 
d="M416 699q52 -82 140 -120v637q-88 -38 -140 -120q-51 -80 -51 -198q0 -119 51 -199zM969 725l279 -153q-57 -129 -178 -210q-122 -81 -283 -99v-263h-231v270q-164 26 -289 112q-127 88 -197 219t-70 297q0 165 70 296t197 219q125 86 289 112v270h231v-263
q164 -18 284 -99q121 -81 177 -212l-279 -150q-67 120 -182 157v-660q117 39 182 157z" />
    <glyph glyph-name="sterling" unicode="&#xa3;" horiz-adv-x="1546" 
d="M607 300h791v-300h-1398v300h231v397h-231v224h231v60q0 309 197 485q198 177 553 177q276 0 463 -106l-113 -296q-139 83 -346 83q-184 0 -281 -85t-97 -251v-67h554v-224h-554v-397z" />
    <glyph glyph-name="yen" unicode="&#xa5;" horiz-adv-x="1867" 
d="M1154 718h346v-192h-432v-127h432v-191h-432v-208h-373v208h-432v191h432v127h-432v192h348l-611 897h399l494 -722l498 722h374z" />
    <glyph glyph-name="glyph97" unicode="&#xa7;" horiz-adv-x="1212" 
d="M393 854q66 -33 207 -63l67 -16q49 22 81 63q30 39 30 90q0 68 -66 101q-64 32 -207 67l-64 14q-52 -22 -83 -64q-30 -40 -30 -88q0 -72 65 -104zM1051 781q-38 -74 -110 -126q104 -87 104 -244q0 -121 -63 -213q-62 -92 -185 -145t-285 -53q-139 0 -285 38
q-144 37 -227 98l106 254q83 -58 193 -92q114 -35 218 -35q99 0 154 37q56 38 56 99q0 66 -65 98q-66 32 -201 59q-140 33 -229 66t-152 107q-64 75 -64 203q0 186 148 298q-99 87 -99 240q0 188 152 300q154 113 431 113q113 0 248 -30q137 -30 214 -81l-104 -251
q-162 99 -378 99q-125 0 -185 -36t-60 -100q0 -61 59 -88t190 -60q145 -35 231 -68q92 -36 159 -115t67 -216q0 -83 -38 -156z" />
    <glyph glyph-name="dieresis" unicode="&#xa8;" horiz-adv-x="890" 
d="M513 1290q-45 45 -45 114q0 70 45 115t115 45q68 0 115 -45q46 -45 46 -115q0 -69 -46 -114q-47 -45 -115 -45q-70 0 -115 45zM46 1290q-46 45 -46 114q0 70 46 115t116 45q69 0 114 -45t45 -115q0 -69 -45 -114t-114 -45q-70 0 -116 45z" />
    <glyph glyph-name="copyright" unicode="&#xa9;" horiz-adv-x="1730" 
d="M590 408q-113 60 -176 167t-63 240t63 239q63 107 176 167t252 60q136 0 240 -59t155 -161l-208 -122q-64 109 -189 109q-92 0 -156 -64q-63 -63 -63 -169q0 -107 63 -170q64 -64 156 -64q125 0 189 109l208 -120q-51 -104 -155 -163t-240 -59q-140 0 -252 60zM1148 239
q150 88 238 242q86 151 86 338t-84 337t-234 237q-148 86 -337 86q-185 0 -337 -88q-149 -87 -235 -240q-86 -154 -86 -336q0 -183 86 -337q85 -153 234 -240q150 -88 333 -88q184 0 336 89zM400 108q-184 107 -293 296q-107 186 -107 411q0 224 107 410q109 189 295 296
q187 108 415 108q229 0 414 -106q186 -106 292 -292q106 -185 106 -412t-108 -414q-109 -189 -296 -297t-413 -108t-412 108z" />
    <glyph glyph-name="ordfeminine" unicode="&#xaa;" horiz-adv-x="870" 
d="M519 1467v76h-143q-141 0 -141 -80q0 -38 34 -60q33 -21 91 -21q117 0 159 85zM668 1908q100 -82 100 -249v-420h-230v90q-30 -48 -93 -75t-150 -27q-139 0 -218 64q-77 62 -77 162q0 104 83 163t256 59h180q-3 136 -177 136q-58 0 -123 -20q-63 -20 -106 -52l-85 157
q67 45 159 70q93 25 189 25q191 0 292 -83z" />
    <glyph glyph-name="guillemotleft" unicode="&#xab;" horiz-adv-x="1271" 
d="M521 759l326 453h323l-316 -453l316 -449h-323zM0 759l325 453h323l-316 -453l316 -449h-323z" />
    <glyph glyph-name="logicalnot" unicode="&#xac;" horiz-adv-x="1200" 
d="M1098 0h-297v404h-801v279h1098v-683z" />
    <glyph glyph-name="registered" unicode="&#xae;" horiz-adv-x="1730" 
d="M835 805q81 0 126 36t45 103q0 66 -45 104q-44 37 -126 37h-136v-280h136zM1199 776q-41 -69 -126 -109l196 -300h-240l-168 258h-10h-150v-258h-239v895h389q185 0 287 -86q103 -87 103 -232q0 -98 -42 -168zM1148 239q150 88 238 242q86 151 86 338t-84 337t-234 237
q-148 86 -337 86q-185 0 -337 -88q-149 -87 -235 -240q-86 -154 -86 -336q0 -183 86 -337q85 -153 234 -240q150 -88 333 -88q184 0 336 89zM1231 1523q186 -106 292 -292q106 -185 106 -412t-108 -414q-109 -189 -296 -297t-413 -108t-412 108q-184 107 -293 296
q-107 186 -107 411q0 224 107 410q109 189 295 296q187 108 415 108q229 0 414 -106z" />
    <glyph glyph-name="macron" unicode="&#xaf;" horiz-adv-x="956" 
d="M0 1506h854v-203h-854v203z" />
    <glyph glyph-name="degree" unicode="&#xb0;" horiz-adv-x="911" 
d="M560 1658q61 62 61 155q0 92 -61 154q-62 63 -154 63t-153 -63q-61 -62 -61 -154q0 -93 61 -155t153 -62q93 0 154 62zM202 1470q-95 54 -148 143q-54 91 -54 200q0 107 54 199t148 145t204 53q109 0 203 -53q93 -53 147 -145t54 -199q0 -109 -54 -200q-52 -89 -147 -143
q-92 -52 -203 -52q-112 0 -204 52z" />
    <glyph glyph-name="plusminus" unicode="&#xb1;" horiz-adv-x="1200" 
d="M0 282h1098v-282h-1098v282zM1098 1131v-273h-401v-378h-298v378h-399v273h399v378h298v-378h401z" />
    <glyph glyph-name="acute" unicode="&#xb4;" horiz-adv-x="800" 
d="M312 1570h387l-418 -332h-281z" />
    <glyph glyph-name="mu" unicode="&#xb5;" horiz-adv-x="1361" 
d="M1260 1689v-1241h-325v152q-56 -87 -142 -129q-87 -42 -184 -42q-150 0 -249 81v-510h-360v1689h360v-648q0 -153 66 -226q66 -74 185 -74q132 0 210 84q79 85 79 250v614h360z" />
    <glyph glyph-name="paragraph" unicode="&#xb6;" horiz-adv-x="1462" 
d="M494 1061q-142 3 -255 57t-176 153t-63 231q0 133 68 233t194 154t292 54h805v-1943h-293v1682h-279v-1682h-293v1061z" />
    <glyph glyph-name="periodcentered" unicode="&#xb7;" horiz-adv-x="550" 
d="M63 62q-63 63 -63 164q0 102 62 163t162 61q99 0 161 -61q63 -61 63 -163q0 -101 -63 -164q-62 -62 -161 -62t-161 62z" />
    <glyph glyph-name="cedilla" unicode="&#xb8;" horiz-adv-x="655" 
d="M97 -498q-57 12 -97 35l55 155q75 -35 150 -35q120 0 120 74q0 67 -113 67h-78l60 245h191l-32 -134q103 -12 151 -63q50 -53 50 -129q0 -105 -93 -167q-92 -61 -246 -61q-56 0 -118 13z" />
    <glyph glyph-name="ordmasculine" unicode="&#xba;" horiz-adv-x="976" 
d="M577 1324q53 53 53 140t-53 138t-139 51q-85 0 -139 -51t-54 -138q0 -88 54 -140q53 -52 139 -52q87 0 139 52zM213 1131q-99 49 -156 136t-57 197q0 109 57 196q59 89 156 136q103 49 225 49q123 0 224 -49q98 -48 156 -136q57 -87 57 -196q0 -111 -57 -198
q-59 -90 -156 -137q-99 -48 -224 -48q-123 0 -225 50z" />
    <glyph glyph-name="guillemotright" unicode="&#xbb;" horiz-adv-x="1271" 
d="M521 310l317 449l-317 453h324l325 -453l-325 -449h-324zM0 310l316 449l-316 453h323l325 -453l-325 -449h-323z" />
    <glyph glyph-name="questiondown" unicode="&#xbf;" horiz-adv-x="1341" 
d="M403 783q-61 58 -61 149q0 88 62 149t157 61q97 0 159 -61t62 -149q0 -91 -62 -149q-64 -59 -159 -59q-96 0 -158 59zM160 -387q-160 112 -160 308q0 95 32 163q33 71 76 118q39 43 116 112q84 73 123 124q41 53 41 125h348q0 -117 -54 -197q-56 -83 -156 -168
q-77 -70 -112 -116q-36 -48 -36 -108q0 -74 69 -123q66 -47 178 -47q108 0 194 44q85 44 141 126l279 -163q-98 -148 -261 -229q-164 -81 -392 -81q-266 0 -426 112z" />
    <glyph glyph-name="germandbls" unicode="&#xdf;" horiz-adv-x="1462" 
d="M1276 764q83 -109 83 -268q0 -231 -159 -363q-160 -133 -422 -133q-76 0 -147 10q-75 10 -126 27l42 286q90 -28 194 -28q116 0 185 55t69 155q0 102 -74 156q-73 54 -206 54h-124v284q130 3 205 68q76 66 76 174q0 98 -64 156q-65 59 -178 59q-125 0 -198 -73
q-72 -72 -72 -206v-1159h-360v1115q0 198 83 337t225 209q141 70 322 70q180 0 314 -63q133 -63 204 -173q70 -109 70 -246q0 -109 -47 -194q-49 -88 -128 -150q151 -51 233 -159z" />
    <glyph glyph-name="florin" unicode="&#x192;" horiz-adv-x="1501" 
d="M1005 1866q-49 -44 -61 -135l-9 -72h318l-32 -277h-307l-116 -920q-26 -213 -161 -337q-137 -125 -353 -125q-93 0 -162 17q-75 18 -122 52l122 261q58 -44 143 -44q72 0 118 45q46 44 55 135l116 916h-194l35 277h193l10 76q26 214 162 337q139 125 361 125
q74 0 155 -19q75 -18 122 -51l-124 -260q-68 44 -141 44q-79 0 -128 -45z" />
    <glyph glyph-name="circumflex" unicode="&#x2c6;" horiz-adv-x="1030" 
d="M665 1297l-201 175l-201 -175h-263l305 332h318l305 -332h-263z" />
    <glyph glyph-name="caron" unicode="&#x2c7;" horiz-adv-x="1030" 
d="M928 1512l-305 -332h-318l-305 332h263l201 -173l201 173h263z" />
    <glyph glyph-name="breve" unicode="&#x2d8;" horiz-adv-x="952" 
d="M125 1382q-118 95 -125 256h226q3 -75 59 -119q57 -45 140 -45q82 0 139 45q56 44 59 119h226q-7 -162 -124 -256q-118 -95 -300 -95t-300 95z" />
    <glyph glyph-name="dotaccent" unicode="&#x2d9;" horiz-adv-x="489" 
d="M54 1323q-54 55 -54 141q0 82 54 138t140 56q85 0 139 -56q55 -57 55 -138q0 -84 -55 -141q-54 -55 -139 -55q-86 0 -140 55z" />
    <glyph glyph-name="ring" unicode="&#x2da;" horiz-adv-x="673" 
d="M384 1362q41 41 41 101q0 59 -41 100t-100 41q-57 0 -98 -41t-41 -100t40 -101q39 -40 99 -40t100 40zM82 1264q-82 81 -82 199q0 117 82 198t202 81q122 0 205 -81t83 -198q0 -118 -83 -199q-81 -80 -205 -80q-121 0 -202 80z" />
    <glyph glyph-name="ogonek" unicode="&#x2db;" horiz-adv-x="653" 
d="M85 -449q-85 70 -85 188q0 112 89 210q87 96 266 161l143 -94q-141 -62 -207 -124q-63 -58 -63 -123q0 -49 36 -78q35 -28 96 -28q79 0 141 34l50 -164q-46 -24 -106 -38q-63 -15 -127 -15q-147 0 -233 71z" />
    <glyph glyph-name="tilde" unicode="&#x2dc;" horiz-adv-x="989" 
d="M506 1252q-45 22 -104 66q-39 28 -62 41q-25 14 -47 14q-48 0 -78 -33t-33 -96h-182q4 154 77 246q72 91 193 91q59 0 107 -24q46 -23 108 -68q49 -35 61 -42q25 -14 47 -14q45 0 77 34q31 32 34 91h182q-4 -149 -77 -240q-72 -90 -193 -90q-62 0 -110 24z" />
    <glyph glyph-name="hungarumlaut" unicode="&#x2dd;" horiz-adv-x="1071" 
d="M632 1600h337l-240 -333h-263zM166 1600h337l-240 -333h-263z" />
    <glyph glyph-name="uni3a9" unicode="&#x3a9;" horiz-adv-x="2111" 
d="M0 305h360q-111 103 -172 245q-61 141 -61 313q0 227 114 404q115 178 315 277q201 99 448 99q246 0 447 -99t317 -277q115 -176 115 -404q0 -173 -62 -313q-63 -142 -173 -245h362v-305h-845v284q164 83 253 226t89 314q0 149 -65 264q-64 113 -179 175q-113 61 -259 61
q-147 0 -260 -61q-115 -62 -179 -175t-64 -264q0 -174 90 -316q90 -143 254 -224v-284h-845v305z" />
    <glyph glyph-name="pi" unicode="&#x3c0;" horiz-adv-x="1792" 
d="M1689 974h-293v-974h-323v974h-217l-108 -974h-323l108 974h-62q-82 0 -129 -38t-47 -112q0 -69 56 -164l-256 -83q-46 66 -70 148q-25 84 -25 159q0 100 54 183q53 81 150 128q95 46 221 46h1264v-267z" />
    <glyph glyph-name="endash" unicode="&#x2013;" horiz-adv-x="1255" 
d="M0 580h1154v-224h-1154v224z" />
    <glyph glyph-name="emdash" unicode="&#x2014;" horiz-adv-x="2410" 
d="M0 609h2307v-224h-2307v224z" />
    <glyph glyph-name="quoteleft" unicode="&#x2018;" 
d="M413 1617q32 -49 32 -120q0 -100 -62 -161t-159 -61q-98 0 -161 63t-63 159q0 45 12 92q13 51 50 139l134 332h229l-102 -367q57 -26 90 -76z" />
    <glyph glyph-name="glyph130" unicode="&#x2019;" 
d="M383 2116q62 -61 62 -161q0 -49 -11 -92q-13 -50 -49 -138l-133 -333h-229l99 365q-57 26 -90 76q-32 49 -32 122q0 99 63 161q62 61 161 61q97 0 159 -61z" />
    <glyph glyph-name="quotesinglbase" unicode="&#x201a;" 
d="M383 723q62 -61 62 -160q0 -49 -11 -92q-12 -45 -51 -139l-131 -332h-229l102 367q-60 24 -92 75q-33 52 -33 121q0 99 63 160q64 62 161 62q95 0 159 -62z" />
    <glyph glyph-name="quotedblleft" unicode="&#x201c;" horiz-adv-x="1091" 
d="M958 1675q32 -49 32 -120q0 -99 -62 -160t-160 -61t-160 62q-63 63 -63 159q0 50 11 93t51 138l134 332h228l-101 -367q57 -26 90 -76zM413 1675q32 -49 32 -120q0 -99 -62 -160t-159 -61q-99 0 -161 62q-63 63 -63 159q0 47 12 93q13 49 50 138l134 332h229l-102 -367
q57 -26 90 -76z" />
    <glyph glyph-name="glyph133" unicode="&#x201d;" horiz-adv-x="1091" 
d="M928 2028q62 -61 62 -160q0 -46 -12 -93q-15 -56 -48 -138l-134 -332h-228l99 364q-57 26 -90 76q-32 49 -32 123q0 98 63 160q62 61 160 61t160 -61zM383 2028q62 -61 62 -160q0 -50 -11 -93q-13 -50 -49 -138l-133 -332h-229l99 364q-57 26 -90 76q-32 49 -32 123
q0 98 63 160q62 61 161 61q97 0 159 -61z" />
    <glyph glyph-name="quotedblbase" unicode="&#x201e;" horiz-adv-x="1091" 
d="M928 723q62 -61 62 -160q0 -45 -12 -92q-13 -51 -50 -139l-132 -332h-228l101 367q-58 23 -91 75t-33 121q0 99 63 160q64 62 160 62t160 -62zM383 723q62 -61 62 -160q0 -49 -11 -92q-12 -45 -51 -139l-131 -332h-229l102 367q-60 24 -92 75q-33 52 -33 121q0 99 63 160
q64 62 161 62q95 0 159 -62z" />
    <glyph glyph-name="dagger" unicode="&#x2020;" horiz-adv-x="1327" 
d="M432 1262h-432v296h432v505h359v-505h434v-296h-434v-1262h-359v1262z" />
    <glyph glyph-name="daggerdbl" unicode="&#x2021;" horiz-adv-x="1327" 
d="M791 1262v-461h434v-298h-434v-503h-359v503h-432v298h432v461h-432v298h432v503h359v-503h434v-298h-434z" />
    <glyph glyph-name="bullet" unicode="&#x2022;" horiz-adv-x="679" 
d="M84 348q-84 84 -84 209t84 208q85 83 204 83q120 0 205 -83q84 -82 84 -208q0 -125 -84 -209t-205 -84q-120 0 -204 84z" />
    <glyph glyph-name="ellipsis" unicode="&#x2026;" horiz-adv-x="1783" 
d="M1299 65q-65 65 -65 161q0 99 65 161q64 61 159 61q96 0 160 -61t64 -161q0 -97 -64 -161q-65 -65 -160 -65q-94 0 -159 65zM681 65q-65 65 -65 161q0 99 65 161q64 61 159 61t159 -61q65 -62 65 -161q0 -96 -65 -161t-159 -65t-159 65zM65 65q-65 65 -65 161
q0 99 65 161q64 61 159 61t159 -61q65 -62 65 -161q0 -96 -65 -161t-159 -65t-159 65z" />
    <glyph glyph-name="perthousand" unicode="&#x2030;" horiz-adv-x="2877" 
d="M2499 255q46 65 46 190q0 126 -46 191t-122 65q-79 0 -124 -64q-45 -65 -45 -192t45 -191q45 -65 124 -65q75 0 122 66zM2088 121q-110 120 -110 324q0 205 110 325q111 121 289 121q177 0 288 -121t111 -325q0 -203 -111 -324t-288 -121q-178 0 -289 121zM1621 255
q45 66 45 190q0 125 -45 191q-44 65 -123 65q-77 0 -123 -64t-46 -192q0 -127 46 -191q47 -65 123 -65q78 0 123 66zM1291 54q-91 54 -142 156t-51 235q0 134 51 236q51 101 142 155q93 55 207 55q177 0 289 -121t112 -325q0 -203 -112 -324t-289 -121q-116 0 -207 54z
M1364 1634h274l-1103 -1616h-274zM525 1015q45 65 45 192t-45 191q-45 65 -123 65q-76 0 -123 -66q-46 -65 -46 -190q0 -126 46 -191t123 -65q78 0 123 64zM112 883q-112 121 -112 324t112 324t290 121q177 0 288 -121t111 -324t-111 -324q-111 -122 -288 -122t-290 122z
" />
    <glyph glyph-name="guilsinglleft" unicode="&#x2039;" horiz-adv-x="751" 
d="M0 759l325 453h323l-316 -453l316 -449h-323z" />
    <glyph glyph-name="guilsinglright" unicode="&#x203a;" horiz-adv-x="751" 
d="M0 310l316 449l-316 453h323l325 -453l-325 -449h-323z" />
    <glyph glyph-name="fraction" unicode="&#x2044;" horiz-adv-x="1480" 
d="M1103 1615h275l-1103 -1615h-275z" />
    <glyph glyph-name="Euro" unicode="&#x20ac;" horiz-adv-x="1865" 
d="M1525 510l238 -222q-115 -140 -285 -214q-171 -74 -380 -74q-200 0 -372 72q-173 72 -292 203q-121 133 -173 304h-261v194h226q-2 14 -2 62q0 49 2 63h-226v193h261q52 172 173 305q119 131 292 203t372 72q209 0 380 -74q168 -73 285 -213l-238 -221q-168 189 -408 189
q-152 0 -272 -69q-121 -69 -185 -192h584v-193h-642q-2 -14 -2 -63q0 -48 2 -62h642v-194h-584q64 -121 185 -191q122 -70 272 -70q241 0 408 192z" />
    <glyph glyph-name="trademark" unicode="&#x2122;" horiz-adv-x="2318" 
d="M1973 955l-2 547l-291 -448h-116l-290 434v-533h-243v957h213l383 -576l374 576h210l4 -957h-242zM0 1912h911v-198h-327v-759h-259v759h-325v198z" />
    <glyph glyph-name="partialdiff" unicode="&#x2202;" horiz-adv-x="1468" 
d="M863 594q81 72 81 177q0 109 -82 179q-83 71 -207 71q-131 0 -211 -68q-79 -67 -79 -182q0 -113 78 -181q79 -68 205 -68q134 0 215 72zM1135 1742q231 -239 231 -682q0 -254 -90 -437q-91 -186 -257 -282q-169 -98 -396 -98q-176 0 -317 67q-143 68 -224 189
q-82 122 -82 282q0 157 77 272q78 118 210 182q133 65 297 65q263 0 408 -166v4q0 265 -131 403q-132 140 -381 140q-184 0 -323 -49l-49 298q168 51 377 51q419 0 650 -239z" />
    <glyph glyph-name="Delta" unicode="&#x2206;" horiz-adv-x="1912" 
d="M494 305h812l-404 957zM1811 0h-1811l720 1615h369z" />
    <glyph glyph-name="product" unicode="&#x220f;" horiz-adv-x="1583" 
d="M0 2063h1481v-2063h-373v1740h-734v-1740h-374v2063z" />
    <glyph glyph-name="summation" unicode="&#x2211;" horiz-adv-x="1515" 
d="M1412 305v-305h-1412v242l711 792l-679 787v242h1359v-305h-858l524 -604v-243l-559 -606h914z" />
    <glyph glyph-name="infinity" unicode="&#x221e;" horiz-adv-x="2101" 
d="M1646 325q66 68 66 166q0 97 -67 163t-166 66q-108 0 -183 -60q-76 -61 -149 -171q73 -110 149 -171q75 -60 183 -60q101 0 167 67zM704 317q72 57 150 172q-78 115 -150 172q-74 59 -183 59q-99 0 -166 -66t-67 -165t67 -165t166 -66q109 0 183 59zM1757 915
q113 -63 177 -174q64 -110 64 -250q0 -138 -64 -250q-64 -111 -177 -176t-250 -65q-176 0 -293 72q-121 74 -213 196q-93 -124 -211 -196t-294 -72q-139 0 -253 63q-113 62 -178 176q-65 113 -65 250q0 138 65 251q64 112 178 175t253 63q177 0 294 -71q118 -72 211 -196
q92 122 213 196q115 71 293 71q137 0 250 -63z" />
    <glyph glyph-name="lozenge" unicode="&#x25ca;" horiz-adv-x="1101" 
d="M761 752l-260 381l-263 -381l260 -385zM0 752l501 746l498 -746l-501 -752z" />
    <glyph glyph-name="quoteright" 
d="M383 1940q62 -61 62 -160q0 -49 -11 -92q-13 -49 -49 -139l-133 -332h-229l99 364q-57 25 -90 77q-32 49 -32 122q0 98 63 160q62 61 161 61q97 0 159 -61z" />
    <glyph glyph-name="quotedblright" horiz-adv-x="1091" 
d="M928 1852q62 -61 62 -160q0 -46 -12 -92q-14 -55 -48 -139l-134 -332h-228l99 365q-57 26 -90 76q-32 49 -32 122q0 98 63 160q64 62 160 62t160 -62zM383 1852q62 -61 62 -160q0 -49 -11 -92q-13 -49 -49 -139l-133 -332h-229l99 365q-57 26 -90 76q-32 49 -32 122
q0 98 63 160q64 62 161 62q95 0 159 -62z" />
    <glyph glyph-name="bar" horiz-adv-x="432" 
d="M0 2160h330v-2160h-330v2160z" />
    <glyph glyph-name="section" horiz-adv-x="1212" 
d="M393 854q66 -33 207 -63l67 -16q49 22 81 63q30 39 30 90q0 68 -66 101q-64 32 -207 67l-64 14q-52 -22 -83 -64q-30 -40 -30 -88q0 -72 65 -104zM1051 781q-38 -74 -110 -126q104 -87 104 -244q0 -121 -63 -213q-62 -92 -185 -145t-285 -53q-139 0 -285 38
q-144 37 -227 98l106 254q83 -58 193 -92q114 -35 218 -35q99 0 154 37q56 38 56 99q0 66 -65 98q-66 32 -201 59q-140 33 -229 66t-152 107q-64 75 -64 203q0 186 148 298q-99 87 -99 240q0 188 152 300q154 113 431 113q113 0 248 -30q137 -30 214 -81l-104 -251
q-162 99 -378 99q-125 0 -185 -36t-60 -100q0 -61 59 -88t190 -60q145 -35 231 -68q92 -36 159 -115t67 -216q0 -83 -38 -156z" />
    <glyph glyph-name="underscore" horiz-adv-x="1255" 
d="M0 208h1154v-208h-1154v208z" />
  </font>
</defs>
</svg>
