<svg width="11" height="30" viewBox="0 0 11 30" fill="none" xmlns="http://www.w3.org/2000/svg">
<mask id="path-1-outside-1_115_515" maskUnits="userSpaceOnUse" x="-1" y="-1" width="13" height="32" fill="black">
<rect fill="white" x="-1" y="-1" width="13" height="32"/>
<path d="M5.65 0.839998H10.546V29.192H4.53V9.64H0.594V5.608C0.914 5.576 1.17 5.544 1.362 5.48C2.546 5.224 3.506 4.744 4.242 4.008C4.754 3.496 5.138 2.824 5.394 1.96C5.554 1.448 5.65 1.064 5.65 0.839998Z"/>
</mask>
<path d="M5.65 0.839998V-0.160002H4.65V0.839998H5.65ZM10.546 0.839998H11.546V-0.160002H10.546V0.839998ZM10.546 29.192V30.192H11.546V29.192H10.546ZM4.53 29.192H3.53V30.192H4.53V29.192ZM4.53 9.64H5.53V8.64H4.53V9.64ZM0.594 9.64H-0.406V10.64H0.594V9.64ZM0.594 5.608L0.494492 4.61296L-0.406 4.70302V5.608H0.594ZM1.362 5.48L1.15067 4.50259L1.09744 4.51409L1.04578 4.53132L1.362 5.48ZM4.242 4.008L4.94911 4.71511L4.94911 4.71511L4.242 4.008ZM5.394 1.96L4.43952 1.66172L4.43731 1.6688L4.4352 1.67591L5.394 1.96ZM5.65 1.84H10.546V-0.160002H5.65V1.84ZM9.546 0.839998V29.192H11.546V0.839998H9.546ZM10.546 28.192H4.53V30.192H10.546V28.192ZM5.53 29.192V9.64H3.53V29.192H5.53ZM4.53 8.64H0.594V10.64H4.53V8.64ZM1.594 9.64V5.608H-0.406V9.64H1.594ZM0.693508 6.60304C0.994328 6.57295 1.36277 6.53384 1.67822 6.42868L1.04578 4.53132C0.977235 4.55416 0.833672 4.57904 0.494492 4.61296L0.693508 6.60304ZM1.57333 6.45741C2.90398 6.16971 4.05026 5.61395 4.94911 4.71511L3.53489 3.30089C2.96174 3.87405 2.18802 4.27829 1.15067 4.50259L1.57333 6.45741ZM4.94911 4.71511C5.6 4.06421 6.05871 3.23664 6.3528 2.24409L4.4352 1.67591C4.21729 2.41136 3.908 2.92778 3.53489 3.30089L4.94911 4.71511ZM6.34848 2.25827C6.49901 1.77658 6.65 1.24368 6.65 0.839998H4.65C4.65 0.834315 4.64764 0.896095 4.60831 1.06411C4.57224 1.21823 4.51626 1.41616 4.43952 1.66172L6.34848 2.25827Z" fill="white" mask="url(#path-1-outside-1_115_515)"/>
</svg>
