<svg width="25" height="29" viewBox="0 0 25 29" fill="none" xmlns="http://www.w3.org/2000/svg">
<mask id="path-1-outside-1_115_517" maskUnits="userSpaceOnUse" x="-1" y="-1" width="27" height="31" fill="black">
<rect fill="white" x="-1" y="-1" width="27" height="31"/>
<path d="M2.392 23.272C3.32 21.416 5.56 19.464 9.112 17.352C12.184 15.56 14.168 14.248 15.064 13.48C16.472 12.264 17.144 10.92 17.144 9.48C17.144 8.296 16.76 7.304 15.96 6.504C15.16 5.736 14.04 5.352 12.536 5.352C10.52 5.352 9.144 5.96 8.408 7.208C7.992 7.944 7.736 9.064 7.672 10.632H1.176C1.304 8.264 1.816 6.344 2.744 4.872C4.536 2.088 7.704 0.679998 12.248 0.679998C15.832 0.679998 18.68 1.512 20.792 3.144C22.936 4.776 23.992 6.952 23.992 9.672C23.992 11.72 23.224 13.576 21.72 15.176C20.76 16.232 19.128 17.416 16.888 18.728L14.2 20.296C12.536 21.288 11.384 21.992 10.776 22.408C10.168 22.856 9.656 23.368 9.24 23.944H24.024V28.776H0.824C0.888 26.76 1.4 24.936 2.392 23.272Z"/>
</mask>
<path d="M2.392 23.272L3.25095 23.7841L3.26989 23.7523L3.28643 23.7192L2.392 23.272ZM9.112 17.352L8.60811 16.4882L8.60093 16.4925L9.112 17.352ZM15.064 13.48L15.7148 14.2393L15.7176 14.2368L15.064 13.48ZM15.96 6.504L16.6671 5.79689L16.6599 5.78968L16.6525 5.78261L15.96 6.504ZM8.408 7.208L7.54663 6.70001L7.54196 6.70794L7.53744 6.71594L8.408 7.208ZM7.672 10.632V11.632H8.63202L8.67117 10.6728L7.672 10.632ZM1.176 10.632L0.177458 10.578L0.120486 11.632H1.176V10.632ZM2.744 4.872L1.9031 4.33073L1.89807 4.3387L2.744 4.872ZM20.792 3.144L20.1805 3.93531L20.1863 3.9397L20.792 3.144ZM21.72 15.176L20.9914 14.4911L20.9857 14.4972L20.9801 14.5033L21.72 15.176ZM16.888 18.728L17.3919 19.5918L17.3934 19.5909L16.888 18.728ZM14.2 20.296L13.6961 19.4322L13.6879 19.4371L14.2 20.296ZM10.776 22.408L10.2113 21.5827L10.1969 21.5926L10.1828 21.6029L10.776 22.408ZM9.24 23.944L8.42932 23.3585L7.28425 24.944H9.24V23.944ZM24.024 23.944H25.024V22.944H24.024V23.944ZM24.024 28.776V29.776H25.024V28.776H24.024ZM0.824 28.776L-0.175496 28.7443L-0.20825 29.776H0.824V28.776ZM3.28643 23.7192C4.07693 22.1382 6.09463 20.3095 9.62308 18.2115L8.60093 16.4925C5.02537 18.6185 2.56307 20.6938 1.49757 22.8248L3.28643 23.7192ZM9.61587 18.2158C12.6839 16.4261 14.7416 15.0735 15.7148 14.2393L14.4132 12.7207C13.5944 13.4225 11.6841 14.6939 8.60813 16.4882L9.61587 18.2158ZM15.7176 14.2368C17.2916 12.8775 18.144 11.2751 18.144 9.48H16.144C16.144 10.5649 15.6524 11.6505 14.4104 12.7232L15.7176 14.2368ZM18.144 9.48C18.144 8.05487 17.671 6.8008 16.6671 5.79689L15.2529 7.21111C15.849 7.80719 16.144 8.53712 16.144 9.48H18.144ZM16.6525 5.78261C15.6118 4.78355 14.2113 4.352 12.536 4.352V6.352C13.8688 6.352 14.7082 6.68844 15.2675 7.22539L16.6525 5.78261ZM12.536 4.352C10.3293 4.352 8.53225 5.02876 7.54663 6.70001L9.26937 7.71598C9.75575 6.89124 10.7107 6.352 12.536 6.352V4.352ZM7.53744 6.71594C7.0066 7.65512 6.73934 8.96172 6.67283 10.5912L8.67117 10.6728C8.73266 9.16627 8.9774 8.23287 9.27856 7.70006L7.53744 6.71594ZM7.672 9.632H1.176V11.632H7.672V9.632ZM2.17454 10.686C2.29687 8.4229 2.78224 6.68645 3.58993 5.4053L1.89807 4.3387C0.849757 6.00155 0.311129 8.1051 0.177458 10.578L2.17454 10.686ZM3.58486 5.41325C5.12962 3.01336 7.90799 1.68 12.248 1.68V-0.320002C7.50002 -0.320002 3.94238 1.16264 1.90314 4.33075L3.58486 5.41325ZM12.248 1.68C15.6819 1.68 18.2927 2.47651 20.1806 3.93528L21.4034 2.35271C19.0673 0.547488 15.9821 -0.320002 12.248 -0.320002V1.68ZM20.1863 3.9397C22.0756 5.37783 22.992 7.25632 22.992 9.672H24.992C24.992 6.64768 23.7964 4.17417 21.3977 2.34829L20.1863 3.9397ZM22.992 9.672C22.992 11.4451 22.3355 13.0612 20.9914 14.4911L22.4486 15.8609C24.1125 14.0908 24.992 11.9949 24.992 9.672H22.992ZM20.9801 14.5033C20.1255 15.4433 18.6015 16.5654 16.3826 17.8651L17.3934 19.5909C19.6545 18.2665 21.3945 17.0207 22.4599 15.8487L20.9801 14.5033ZM16.3841 17.8642L13.6961 19.4322L14.7039 21.1598L17.3919 19.5918L16.3841 17.8642ZM13.6879 19.4371C12.0311 20.4248 10.8502 21.1456 10.2113 21.5827L11.3407 23.2333C11.9178 22.8384 13.0409 22.1512 14.7121 21.1549L13.6879 19.4371ZM10.1828 21.6029C9.49663 22.1085 8.90971 22.6934 8.42932 23.3585L10.0507 24.5295C10.4023 24.0426 10.8394 23.6035 11.3692 23.2131L10.1828 21.6029ZM9.24 24.944H24.024V22.944H9.24V24.944ZM23.024 23.944V28.776H25.024V23.944H23.024ZM24.024 27.776H0.824V29.776H24.024V27.776ZM1.8235 28.8077C1.88248 26.9499 2.35137 25.293 3.25095 23.7841L1.53305 22.7599C0.44863 24.579 -0.106477 26.5701 -0.175496 28.7443L1.8235 28.8077Z" fill="white" mask="url(#path-1-outside-1_115_517)"/>
</svg>
