<svg width="24" height="29" viewBox="0 0 24 29" fill="none" xmlns="http://www.w3.org/2000/svg">
<mask id="path-1-outside-1_115_519" maskUnits="userSpaceOnUse" x="-1" y="-1" width="27" height="31" fill="black">
<rect fill="white" x="-1" y="-1" width="27" height="31"/>
<path d="M7.11325 19.88C7.11325 21 7.33725 21.896 7.75325 22.632C8.58525 23.944 10.0253 24.616 12.1693 24.616C13.4813 24.616 14.6333 24.232 15.5933 23.528C16.5853 22.792 17.0653 21.736 17.0653 20.392C17.0653 18.568 16.1693 17.352 14.3453 16.744C13.3213 16.424 11.6893 16.232 9.48125 16.232V12.392C11.6573 12.36 13.1613 12.168 14.0253 11.88C15.4973 11.336 16.2333 10.248 16.2333 8.648C16.2333 7.592 15.8493 6.728 15.1133 6.088C14.3453 5.416 13.2893 5.096 11.9133 5.096C10.3453 5.096 9.19325 5.512 8.45725 6.312C7.72125 7.112 7.36925 8.2 7.40125 9.544H1.16125C1.22525 8.2 1.51325 6.888 2.02525 5.672C2.56925 4.584 3.43325 3.592 4.58525 2.696C5.48125 2.056 6.50525 1.544 7.72125 1.192C8.90525 0.871998 10.3773 0.679998 12.1373 0.679998C15.3693 0.679998 17.9933 1.384 19.9773 2.728C21.9613 4.104 22.9533 5.928 22.9533 8.2C22.9533 9.832 22.3773 11.176 21.1613 12.296C20.4253 13 19.6573 13.48 18.8253 13.736C19.4333 13.736 20.3293 14.152 21.4493 14.984C23.1453 16.264 24.0093 18.024 24.0093 20.232C24.0093 22.568 23.0173 24.616 21.0333 26.376C19.0493 28.136 16.1053 29 12.2013 29C7.40125 29 4.07325 27.752 2.18525 25.192C1.19325 23.848 0.64925 22.088 0.55325 19.88H7.11325Z"/>
</mask>
<path d="M7.11325 19.88H8.11325V18.88H7.11325V19.88ZM7.75325 22.632L6.88269 23.1241L6.89516 23.1461L6.90874 23.1675L7.75325 22.632ZM15.5933 23.528L16.1846 24.3344L16.1891 24.3311L15.5933 23.528ZM14.3453 16.744L14.6615 15.7953L14.6525 15.7923L14.6435 15.7895L14.3453 16.744ZM9.48125 16.232H8.48125V17.232H9.48125V16.232ZM9.48125 12.392L9.46655 11.3921L8.48125 11.4066V12.392H9.48125ZM14.0252 11.88L14.3415 12.8287L14.3568 12.8236L14.3719 12.818L14.0252 11.88ZM15.1133 6.088L14.4547 6.84058L14.4571 6.84261L15.1133 6.088ZM8.45725 6.312L7.72132 5.63494L7.72132 5.63494L8.45725 6.312ZM7.40125 9.544V10.544H8.42534L8.40097 9.5202L7.40125 9.544ZM1.16125 9.544L0.162382 9.49643L0.112498 10.544H1.16125V9.544ZM2.02525 5.672L1.13082 5.22479L1.11626 5.25392L1.10361 5.28394L2.02525 5.672ZM4.58525 2.696L4.00401 1.88227L3.98741 1.89412L3.97131 1.90665L4.58525 2.696ZM7.72125 1.192L7.46034 0.226636L7.45175 0.228959L7.44319 0.231435L7.72125 1.192ZM19.9773 2.728L20.5472 1.90623L20.5381 1.90008L19.9773 2.728ZM21.1613 12.296L20.4838 11.5605L20.4768 11.5668L20.47 11.5734L21.1613 12.296ZM18.8253 13.736L18.5312 12.7802L18.8253 14.736V13.736ZM21.4493 14.984L22.0517 14.1858L22.0456 14.1813L21.4493 14.984ZM21.0333 26.376L20.3696 25.6279L21.0333 26.376ZM2.18525 25.192L2.99005 24.5985L2.98982 24.5981L2.18525 25.192ZM0.55325 19.88V18.88H-0.491173L-0.445806 19.9234L0.55325 19.88ZM6.11325 19.88C6.11325 21.1368 6.36589 22.2097 6.88269 23.1241L8.62381 22.1399C8.30861 21.5823 8.11325 20.8632 8.11325 19.88H6.11325ZM6.90874 23.1675C7.98246 24.8607 9.80807 25.616 12.1693 25.616V23.616C10.2424 23.616 9.18805 23.0273 8.59776 22.0965L6.90874 23.1675ZM12.1693 25.616C13.6867 25.616 15.0473 25.1684 16.1846 24.3344L15.0019 22.7216C14.2192 23.2956 13.2758 23.616 12.1693 23.616V25.616ZM16.1891 24.3311C17.4707 23.3802 18.0653 22.0058 18.0653 20.392H16.0653C16.0653 21.4662 15.6998 22.2038 14.9974 22.7249L16.1891 24.3311ZM18.0653 20.392C18.0653 19.3119 17.7974 18.33 17.1918 17.5154C16.5888 16.7043 15.7165 16.147 14.6615 15.7953L14.029 17.6927C14.798 17.949 15.2857 18.3037 15.5867 18.7086C15.8851 19.11 16.0653 19.6481 16.0653 20.392H18.0653ZM14.6435 15.7895C13.475 15.4243 11.7234 15.232 9.48125 15.232V17.232C11.6551 17.232 13.1675 17.4236 14.047 17.6985L14.6435 15.7895ZM10.4813 16.232V12.392H8.48125V16.232H10.4813ZM9.49595 13.3919C11.692 13.3596 13.3245 13.1677 14.3415 12.8287L13.709 10.9313C12.998 11.1683 11.6225 11.3604 9.46655 11.3921L9.49595 13.3919ZM14.3719 12.818C15.2646 12.4881 16.0015 11.9658 16.5076 11.2231C17.0122 10.4827 17.2333 9.60277 17.2333 8.648H15.2333C15.2333 9.29322 15.0863 9.75728 14.8549 10.0969C14.625 10.4342 14.2579 10.7279 13.6786 10.942L14.3719 12.818ZM17.2333 8.648C17.2333 7.32285 16.7387 6.17624 15.7694 5.33339L14.4571 6.84261C14.9598 7.27976 15.2333 7.86115 15.2333 8.648H17.2333ZM15.7718 5.33542C14.762 4.45186 13.4386 4.096 11.9133 4.096V6.096C13.1399 6.096 13.9285 6.38014 14.4547 6.84058L15.7718 5.33542ZM11.9133 4.096C10.1808 4.096 8.71271 4.55735 7.72132 5.63494L9.19318 6.98906C9.67379 6.46665 10.5097 6.096 11.9133 6.096V4.096ZM7.72132 5.63494C6.76866 6.67044 6.36499 8.03295 6.40153 9.5678L8.40097 9.5202C8.37351 8.36704 8.67384 7.55356 9.19318 6.98905L7.72132 5.63494ZM7.40125 8.544H1.16125V10.544H7.40125V8.544ZM2.16012 9.59156C2.21883 8.35871 2.48267 7.16256 2.94689 6.06006L1.10361 5.28394C0.543828 6.61344 0.231675 8.04129 0.162382 9.49643L2.16012 9.59156ZM2.91968 6.11921C3.38233 5.19391 4.13631 4.31204 5.19919 3.48535L3.97131 1.90665C2.73019 2.87196 1.75617 3.97409 1.13082 5.22479L2.91968 6.11921ZM5.16649 3.50973C5.97074 2.93527 6.89227 2.47302 7.99931 2.15256L7.44319 0.231435C6.11823 0.614977 4.99176 1.17673 4.00401 1.88227L5.16649 3.50973ZM7.98216 2.15736C9.06506 1.86468 10.4471 1.68 12.1373 1.68V-0.320002C10.3074 -0.320002 8.74544 -0.120689 7.46034 0.226636L7.98216 2.15736ZM12.1373 1.68C15.2295 1.68 17.6416 2.35366 19.4164 3.55592L20.5381 1.90008C18.3449 0.414338 15.509 -0.320002 12.1373 -0.320002V1.68ZM19.4074 3.54971C21.1419 4.75272 21.9533 6.27943 21.9533 8.2H23.9533C23.9533 5.57657 22.7806 3.45527 20.5471 1.90628L19.4074 3.54971ZM21.9533 8.2C21.9533 9.55643 21.4913 10.6324 20.4838 11.5605L21.8387 13.0315C23.2632 11.7196 23.9533 10.1076 23.9533 8.2H21.9533ZM20.47 11.5734C19.8225 12.1928 19.1857 12.5788 18.5312 12.7802L19.1193 14.6918C20.1288 14.3812 21.028 13.8072 21.8525 13.0186L20.47 11.5734ZM18.8253 14.736C18.9203 14.736 19.1422 14.7745 19.5179 14.9521C19.8807 15.1236 20.3274 15.3963 20.8529 15.7867L22.0456 14.1813C21.4511 13.7397 20.8898 13.3884 20.3726 13.1439C19.8683 12.9055 19.3382 12.736 18.8253 12.736V14.736ZM20.8468 15.7822C22.2834 16.8664 23.0093 18.3262 23.0093 20.232H25.0093C25.0093 17.7218 24.0071 15.6616 22.0517 14.1858L20.8468 15.7822ZM23.0093 20.232C23.0093 22.2417 22.1718 24.0292 20.3696 25.6279L21.6969 27.1241C23.8627 25.2028 25.0093 22.8943 25.0093 20.232H23.0093ZM20.3696 25.6279C18.6405 27.1618 15.9779 28 12.2013 28V30C16.2326 30 19.458 29.1102 21.6969 27.1241L20.3696 25.6279ZM12.2013 28C7.54512 28 4.60596 26.7895 2.99005 24.5985L1.38045 25.7855C3.54054 28.7145 7.25738 30 12.2013 30V28ZM2.98982 24.5981C2.14771 23.4572 1.64232 21.907 1.55231 19.8366L-0.445806 19.9234C-0.343824 22.269 0.238791 24.2388 1.38068 25.7859L2.98982 24.5981ZM0.55325 20.88H7.11325V18.88H0.55325V20.88Z" fill="white" mask="url(#path-1-outside-1_115_519)"/>
</svg>
