<svg width="25" height="28" viewBox="0 0 25 28" fill="none" xmlns="http://www.w3.org/2000/svg">
<mask id="path-1-outside-1_115_521" maskUnits="userSpaceOnUse" x="-1" y="-1" width="27" height="30" fill="black">
<rect fill="white" x="-1" y="-1" width="27" height="30"/>
<path d="M18.401 9.344L24.545 5.344V27.904H18.401L18.337 22.048H0.449L0.577 16.704L13.441 -1.90735e-06H20.993L7.969 17.184H18.401V9.344Z"/>
</mask>
<path d="M18.401 9.344L17.8554 8.50596L17.401 8.80179V9.344H18.401ZM24.545 5.344H25.545V3.4997L23.9994 4.50596L24.545 5.344ZM24.545 27.904V28.904H25.545V27.904H24.545ZM18.401 27.904L17.4011 27.9149L17.4119 28.904H18.401V27.904ZM18.337 22.048L19.3369 22.0371L19.3261 21.048H18.337V22.048ZM0.449 22.048L-0.550713 22.0241L-0.575239 23.048H0.449V22.048ZM0.577 16.704L-0.215285 16.0938L-0.41488 16.353L-0.422713 16.6801L0.577 16.704ZM13.441 -1.90735e-06V-1H12.9489L12.6487 -0.610153L13.441 -1.90735e-06ZM20.993 -1.90735e-06L21.79 0.604027L23.0057 -1H20.993V-1.90735e-06ZM7.969 17.184L7.17204 16.58L5.95632 18.184H7.969V17.184ZM18.401 17.184V18.184H19.401V17.184H18.401ZM18.9466 10.182L25.0906 6.18204L23.9994 4.50596L17.8554 8.50596L18.9466 10.182ZM23.545 5.344V27.904H25.545V5.344H23.545ZM24.545 26.904H18.401V28.904H24.545V26.904ZM19.4009 27.8931L19.3369 22.0371L17.3371 22.0589L17.4011 27.9149L19.4009 27.8931ZM18.337 21.048H0.449V23.048H18.337V21.048ZM1.44871 22.0719L1.57671 16.7279L-0.422713 16.6801L-0.550713 22.0241L1.44871 22.0719ZM1.36929 17.3141L14.2333 0.610149L12.6487 -0.610153L-0.215285 16.0938L1.36929 17.3141ZM13.441 0.999998H20.993V-1H13.441V0.999998ZM20.196 -0.604031L7.17204 16.58L8.76596 17.788L21.79 0.604027L20.196 -0.604031ZM7.969 18.184H18.401V16.184H7.969V18.184ZM19.401 17.184V9.344H17.401V17.184H19.401Z" fill="white" mask="url(#path-1-outside-1_115_521)"/>
</svg>
