<svg width="18" height="18" viewBox="0 0 18 18" fill="none" xmlns="http://www.w3.org/2000/svg">
<path d="M11.8081 11.3417C10.9582 11.286 10.29 10.5829 10.29 9.72341C10.29 9.69472 10.2905 9.66604 10.2922 9.63735V9.64128C10.2905 9.61428 10.2894 9.58279 10.2894 9.55072C10.2894 8.69291 10.9588 7.99203 11.8036 7.94085H11.8081C12.657 7.98697 13.3275 8.68616 13.3275 9.54229C13.3275 9.57716 13.3263 9.61147 13.3241 9.64579V9.64128C13.3258 9.66941 13.3269 9.7026 13.3269 9.73579C13.3269 10.5925 12.657 11.2928 11.8121 11.3412H11.8076L11.8081 11.3417ZM6.20227 11.3417C5.35234 11.286 4.68409 10.5829 4.68409 9.72341C4.68409 9.69472 4.68465 9.66604 4.68634 9.63735V9.64128C4.68465 9.61428 4.68352 9.58279 4.68352 9.55072C4.68352 8.69291 5.3529 7.99203 6.19777 7.94085H6.20227C7.05108 7.98697 7.72159 8.68616 7.72159 9.54229C7.72159 9.57716 7.72046 9.61147 7.71821 9.64579V9.64128C7.7199 9.66828 7.72102 9.69979 7.72102 9.73185C7.72102 10.5897 7.05165 11.2905 6.20677 11.3417H6.20227ZM14.8462 3.6366C13.8545 3.1686 12.7025 2.79847 11.4965 2.58416L11.4127 2.57179C11.4099 2.57122 11.4065 2.57066 11.4031 2.57066C11.3835 2.57066 11.3666 2.58135 11.3576 2.5971C11.226 2.82829 11.0831 3.11685 10.9543 3.41272L10.9301 3.47516C10.3507 3.38235 9.68246 3.32947 9.00183 3.32947C8.32121 3.32947 7.65296 3.38235 7.00102 3.48416L7.07359 3.4746C6.92171 3.12022 6.77659 2.83222 6.61627 2.55322L6.63934 2.59654C6.62977 2.58022 6.61234 2.5701 6.59265 2.5701C6.58984 2.5701 6.58646 2.5701 6.58365 2.57066C5.29384 2.79735 4.14184 3.16691 3.06521 3.67147L3.15015 3.63547C3.14059 3.63941 3.13271 3.64616 3.12765 3.6546C1.52227 5.92766 0.561523 8.75591 0.561523 11.8086C0.561523 12.3188 0.588523 12.8222 0.640836 13.3183L0.635773 13.2565C0.637461 13.2728 0.645898 13.2863 0.657711 13.2958C1.86146 14.1964 3.26096 14.922 4.77127 15.3985L4.87027 15.4255C4.87477 15.4272 4.8804 15.4277 4.88602 15.4277C4.90402 15.4277 4.91977 15.4193 4.92934 15.4063C5.23027 15.0013 5.51659 14.5423 5.76465 14.0608L5.79109 14.0046C5.79446 13.9978 5.79671 13.9894 5.79671 13.9804C5.79671 13.9573 5.78209 13.9382 5.76184 13.9303H5.76127C5.24827 13.7323 4.81459 13.5214 4.40171 13.2795L4.44502 13.3032C4.42871 13.2936 4.41802 13.2762 4.41802 13.2565C4.41802 13.239 4.42646 13.2233 4.4394 13.2137C4.52771 13.1473 4.61659 13.0787 4.70096 13.009C4.70996 13.0017 4.72177 12.9972 4.73415 12.9972C4.74202 12.9972 4.74934 12.9988 4.75552 13.0017H4.75496C5.99696 13.5985 7.45496 13.9472 8.99396 13.9472C10.533 13.9472 11.9915 13.5985 13.2931 12.9758L13.233 13.0017C13.2397 12.9983 13.247 12.9966 13.2555 12.9966C13.2678 12.9966 13.2796 13.0011 13.2886 13.0084C13.373 13.0782 13.4613 13.1479 13.5508 13.2137C13.5637 13.2238 13.5721 13.2396 13.5721 13.257C13.5721 13.2767 13.5615 13.2936 13.5463 13.3032C13.1745 13.5253 12.7408 13.7357 12.2891 13.9095L12.23 13.9298C12.2098 13.9377 12.1951 13.9573 12.1951 13.9798C12.1951 13.9888 12.1974 13.9973 12.2013 14.0046C12.4831 14.5446 12.7689 15.0025 13.085 15.4373L13.0625 15.4052C13.0721 15.4187 13.0884 15.4277 13.1058 15.4277C13.1115 15.4277 13.1171 15.4266 13.1221 15.4255C14.7337 14.9237 16.1355 14.1981 17.3775 13.27L17.3409 13.2964C17.3533 13.2874 17.3611 13.2733 17.3628 13.2576C17.4118 12.8166 17.4393 12.3047 17.4393 11.7867C17.4393 8.74072 16.4763 5.91979 14.8389 3.61129L14.8681 3.65516C14.8636 3.64616 14.8558 3.63885 14.8468 3.63491L14.8462 3.6366Z" fill="#747474"/>
</svg>
