<svg width="18" height="18" viewBox="0 0 18 18" fill="none" xmlns="http://www.w3.org/2000/svg">
<g clip-path="url(#clip0_63_1246)">
<path d="M9 1.5C4.875 1.5 1.5 4.875 1.5 9C1.5 13.125 4.875 16.5 9 16.5C13.125 16.5 16.5 13.125 16.5 9C16.5 4.875 13.125 1.5 9 1.5ZM12.675 6.075L11.4 12.225C11.325 12.675 11.025 12.75 10.725 12.525L8.775 11.025C8.325 11.475 7.875 11.85 7.8 12C7.65 12.075 7.575 12.225 7.425 12.225C7.2 12.225 7.2 12.075 7.125 11.925L6.45 9.675L4.425 9C3.975 8.85 3.975 8.55 4.5 8.325L12.15 5.4C12.45 5.325 12.825 5.475 12.675 6.075ZM10.875 6.75L6.6 9.45L7.275 11.7L7.425 10.2L11.1 6.9C11.325 6.675 11.175 6.675 10.875 6.75Z" fill="#747474"/>
</g>
<defs>
<clipPath id="clip0_63_1246">
<rect width="18" height="18" fill="white"/>
</clipPath>
</defs>
</svg>
